Coordinates
version=1
nRows=17
nColumns=24
inDegrees=yes

Units are S.I. units (second, meters, Newtons, ...)
Angles are in degrees.

endheader
time	pelvis_tilt	pelvis_list	pelvis_rotation	pelvis_tx	pelvis_ty	pelvis_tz	hip_flexion_r	hip_adduction_r	hip_rotation_r	knee_angle_r	ankle_angle_r	subtalar_angle_r	mtp_angle_r	hip_flexion_l	hip_adduction_l	hip_rotation_l	knee_angle_l	ankle_angle_l	subtalar_angle_l	mtp_angle_l	lumbar_extension	lumbar_bending	lumbar_rotation
      0.98150000	     -2.42934404	     -1.19659611	      1.64059875	      0.50813605	      0.99328422	      0.33190318	     16.27002368	      5.18668055	      1.95180744	    -25.21618261	     13.67371721	    -12.68588821	     -0.57505772	     15.23893212	     -2.59420139	     -0.63497187	    -69.77927537	     -0.90790117	     -7.62448634	      3.33146579	     -9.41426282	     10.21747510	     -4.58576306
      0.98566667	     -2.38828276	     -1.06070794	      1.47103310	      0.51272409	      0.99436747	      0.33241108	     15.71326938	      5.10968602	      2.13072165	    -24.76357214	     13.72382886	    -12.66193004	     -0.55316947	     15.75575307	     -2.53618105	     -0.82148628	    -69.51270231	     -0.22886046	     -7.34665988	      3.31450972	     -9.49904516	      9.97111515	     -4.17761261
      0.98983333	     -2.36104534	     -0.90103488	      1.29527605	      0.51727631	      0.99539510	      0.33290868	     15.18645524	      5.00302028	      2.31693157	    -24.33864241	     13.76049892	    -12.62382449	     -0.52985871	     16.27724540	     -2.44816374	     -1.01271453	    -69.19827801	      0.42795872	     -7.13281437	      3.29133820	     -9.58440007	      9.70710370	     -3.83820786
      0.99400000	     -2.30890721	     -0.74934193	      1.12460399	      0.52184500	      0.99645288	      0.33339120	     14.62261450	      4.90013393	      2.49747501	    -23.89037321	     13.78796893	    -12.58398315	     -0.50508106	     16.75830462	     -2.37191330	     -1.20150801	    -68.83368002	      1.07242048	     -6.91544430	      3.26269143	     -9.69356883	      9.45743795	     -3.51068994
      0.99816667	     -2.27281715	     -0.58063615	      0.95075948	      0.52640785	      0.99746332	      0.33386768	     14.08221797	      4.77448242	      2.67923076	    -23.45254047	     13.81909293	    -12.54147767	     -0.48088502	     17.24337646	     -2.27659772	     -1.39428085	    -68.41857618	      1.68728794	     -6.71577876	      3.23261510	     -9.77901467	      9.18473374	     -3.20578174
      1.00233333	     -2.26185195	     -0.41031685	      0.77689251	      0.53094373	      0.99838649	      0.33431893	     13.58053489	      4.64107000	      2.86256391	    -23.03422205	     13.83435938	    -12.47519213	     -0.46030348	     17.74954590	     -2.17393173	     -1.57920325	    -67.96861331	      2.29202465	     -6.55102470	      3.20754618	     -9.85121033	      8.92863173	     -2.94859158
      1.00650000	     -2.21863581	     -0.24833690	      0.60906405	      0.53550930	      0.99933738	      0.33477033	     13.03146036	      4.51211622	      3.03486659	    -22.58834955	     13.88157535	    -12.42399217	     -0.43380612	     18.20584395	     -2.08869159	     -1.76614552	    -67.46817856	      2.86125993	     -6.34899771	      3.16943620	     -9.94039142	      8.66410763	     -2.60985881
      1.01066667	     -2.17795337	     -0.09811035	      0.44366561	      0.54007887	      1.00024609	      0.33520435	     12.48547469	      4.39131960	      3.20511467	    -22.14010372	     13.91497298	    -12.37573884	     -0.40514523	     18.65475143	     -2.01567039	     -1.94887159	    -66.92917278	      3.40589038	     -6.18011923	      3.12237833	    -10.02016084	      8.41695778	     -2.28807966
      1.01483333	     -2.13574266	      0.06919448	      0.27155476	      0.54464306	      1.00112688	      0.33560965	     11.94870208	      4.24420655	      3.36616849	    -21.71136126	     13.92075977	    -12.30903356	     -0.38179741	     19.08641537	     -1.91853207	     -2.13380248	    -66.34285778	      3.92740738	     -6.07125271	      3.08364308	    -10.10701055	      8.17107023	     -2.04816771
      1.01900000	     -2.10369259	      0.23310998	      0.10240790	      0.54922393	      1.00196397	      0.33601814	     11.42409406	      4.09603602	      3.50920364	    -21.28221659	     13.93546599	    -12.23716956	     -0.36063489	     19.51680213	     -1.83172901	     -2.32549680	    -65.71511599	      4.40983871	     -5.98676307	      3.04745375	    -10.16045335	      7.90970196	     -1.80836394
      1.02316667	     -2.05198410	      0.38065555	     -0.05515944	      0.55379951	      1.00277351	      0.33640744	     10.87039691	      3.96376047	      3.67120830	    -20.83841909	     14.01792231	    -12.17387165	     -0.32023540	     19.91933880	     -1.75404670	     -2.48430144	    -65.05487295	      4.83952774	     -5.86649516	      2.96853644	    -10.26204054	      7.65644500	     -1.39785184
      1.02733333	     -1.99861824	      0.53701527	     -0.21843399	      0.55836811	      1.00356782	      0.33676991	     10.32412277	      3.81439071	      3.82160427	    -20.40659465	     14.04633902	    -12.10129860	     -0.28379845	     20.30387464	     -1.66192951	     -2.64511925	    -64.34710904	      5.24475151	     -5.82463660	      2.89284004	    -10.35505789	      7.41801806	     -1.13324911
      1.03150000	     -1.96421666	      0.70436547	     -0.38653399	      0.56293508	      1.00429441	      0.33710597	      9.81240723	      3.64594239	      3.95848003	    -20.00025649	     14.04989409	    -11.99693545	     -0.25840718	     20.69581371	     -1.55193258	     -2.80249106	    -63.60045102	      5.62546359	     -5.83318924	      2.84143174	    -10.41872601	      7.18038182	     -0.94099670
      1.03566667	     -1.86866189	      0.85034449	     -0.53814225	      0.56752887	      1.00507574	      0.33744084	      9.21684813	      3.49623935	      4.08265918	    -19.55960080	     14.12964223	    -11.90009154	     -0.21541585	     21.00943897	     -1.46349392	     -2.93838490	    -62.81517533	      5.93964151	     -5.84835277	      2.74995132	    -10.56335219	      6.92853051	     -0.59988117
      1.03983333	     -1.86399439	      1.00210809	     -0.70383101	      0.57209823	      1.00566350	      0.33774105	      8.74753906	      3.33631592	      4.21352797	    -19.17240930	     14.14029876	    -11.79051329	     -0.18844500	     21.41305535	     -1.36152645	     -3.06779433	    -62.00596999	      6.25369901	     -5.89864579	      2.69203453	    -10.59019722	      6.71889310	     -0.40891429
      1.04400000	     -1.77322023	      1.14622319	     -0.85612796	      0.57669319	      1.00634994	      0.33803408	      8.16862988	      3.17760477	      4.32094563	    -18.75129242	     14.23191921	    -11.66892835	     -0.14302554	     21.70785546	     -1.26312705	     -3.18016855	    -61.15081519	      6.49166504	     -5.99180858	      2.59200904	    -10.72721211	      6.47190210	     -0.07602848
      1.04816667	     -1.72974667	      1.29389913	     -1.01145279	      0.58127587	      1.00691720	      0.33829637	      7.65794294	      3.01024842	      4.42165022	    -18.36215390	     14.29338151	    -11.53583441	     -0.09828154	     22.04322238	     -1.15292775	     -3.27782988	    -60.26554734	      6.71483445	     -6.10955970	      2.49138330	    -10.80173052	      6.24830382	      0.18464562
